<?xml version="1.0" encoding="UTF-8" standalone="no"?>
<!-- Created with Inkscape (http://www.inkscape.org/) -->

<svg
   xmlns:dc="http://purl.org/dc/elements/1.1/"
   xmlns:cc="http://creativecommons.org/ns#"
   xmlns:rdf="http://www.w3.org/1999/02/22-rdf-syntax-ns#"
   xmlns:svg="http://www.w3.org/2000/svg"
   xmlns="http://www.w3.org/2000/svg"
   xmlns:sodipodi="http://sodipodi.sourceforge.net/DTD/sodipodi-0.dtd"
   xmlns:inkscape="http://www.inkscape.org/namespaces/inkscape"
   width="512"
   height="512"
   viewBox="0 0 135.46667 135.46667"
   version="1.1"
   id="svg8"
   inkscape:version="0.92.1 r15371"
   sodipodi:docname="natural-mystic-logo.svg">
  <defs
     id="defs2" />
  <sodipodi:namedview
     id="base"
     pagecolor="#ffffff"
     bordercolor="#666666"
     borderopacity="1.0"
     inkscape:pageopacity="0"
     inkscape:pageshadow="2"
     inkscape:zoom="1.5703125"
     inkscape:cx="256"
     inkscape:cy="255.99997"
     inkscape:document-units="mm"
     inkscape:current-layer="text4609"
     showgrid="false"
     units="px"
     inkscape:pagecheckerboard="true"
     inkscape:window-width="1769"
     inkscape:window-height="1014"
     inkscape:window-x="122"
     inkscape:window-y="25"
     inkscape:window-maximized="0"
     scale-x="1" />
  <metadata
     id="metadata5">
    <rdf:RDF>
      <cc:Work
         rdf:about="">
        <dc:format>image/svg+xml</dc:format>
        <dc:type
           rdf:resource="http://purl.org/dc/dcmitype/StillImage" />
        <dc:title />
        <cc:license
           rdf:resource="http://creativecommons.org/publicdomain/zero/1.0/" />
      </cc:Work>
      <cc:License
         rdf:about="http://creativecommons.org/publicdomain/zero/1.0/">
        <cc:permits
           rdf:resource="http://creativecommons.org/ns#Reproduction" />
        <cc:permits
           rdf:resource="http://creativecommons.org/ns#Distribution" />
        <cc:permits
           rdf:resource="http://creativecommons.org/ns#DerivativeWorks" />
      </cc:License>
    </rdf:RDF>
  </metadata>
  <g
     inkscape:label="Background"
     inkscape:groupmode="layer"
     id="layer1"
     transform="translate(0,-161.53333)"
     sodipodi:insensitive="true">
    <rect
       style="fill:#000000;fill-opacity:1;stroke:#000000;stroke-width:0.52710766;stroke-miterlimit:4;stroke-dasharray:none;stroke-opacity:1"
       id="rect3822"
       width="134.93956"
       height="134.93956"
       x="0.26355383"
       y="161.79689" />
  </g>
  <g
     inkscape:groupmode="layer"
     id="layer2"
     inkscape:label="original text"
     style="display:none;opacity:1"
     sodipodi:insensitive="true">
    <text
       xml:space="preserve"
       style="font-style:normal;font-weight:normal;font-size:31.75px;line-height:125%;font-family:'Bitstream Vera Sans';letter-spacing:0px;word-spacing:0px;fill:#ffffff;fill-opacity:1;stroke:none;stroke-width:0.26458332px;stroke-linecap:butt;stroke-linejoin:miter;stroke-opacity:1"
       x="6.3498821"
       y="62.139282"
       id="text4632"><tspan
         sodipodi:role="line"
         id="tspan4630"
         x="6.3498821"
         y="62.139282"
         style="font-style:normal;font-variant:normal;font-weight:normal;font-stretch:normal;font-size:31.75px;font-family:'TRS Million';-inkscape-font-specification:'TRS Million';text-align:start;text-anchor:start;fill:#ffffff;fill-opacity:1;stroke-width:0.26458332px"
         dx="0"
         dy="0">Natural</tspan><tspan
         sodipodi:role="line"
         x="6.3498821"
         y="103.54872"
         style="font-style:normal;font-variant:normal;font-weight:normal;font-stretch:normal;font-size:31.75px;font-family:'TRS Million';-inkscape-font-specification:'TRS Million';text-align:start;text-anchor:start;fill:#ffffff;fill-opacity:1;stroke-width:0.26458332px"
         id="tspan4634">Mystic</tspan></text>
    <flowRoot
       xml:space="preserve"
       id="flowRoot4636"
       style="font-style:normal;font-weight:normal;font-size:40px;line-height:125%;font-family:'Bitstream Vera Sans';letter-spacing:0px;word-spacing:0px;fill:#000000;fill-opacity:1;stroke:none;stroke-width:1px;stroke-linecap:butt;stroke-linejoin:miter;stroke-opacity:1"><flowRegion
         id="flowRegion4638"><rect
           id="rect4640"
           width="248.57143"
           height="85.714287"
           x="-11.428572"
           y="112" /></flowRegion><flowPara
         id="flowPara4642" /></flowRoot>    <flowRoot
       xml:space="preserve"
       id="flowRoot4644"
       style="font-style:normal;font-weight:normal;font-size:40px;line-height:125%;font-family:'Bitstream Vera Sans';letter-spacing:0px;word-spacing:0px;fill:#000000;fill-opacity:1;stroke:none;stroke-width:1px;stroke-linecap:butt;stroke-linejoin:miter;stroke-opacity:1"><flowRegion
         id="flowRegion4646"><rect
           id="rect4648"
           width="187.14285"
           height="84.285713"
           x="51.42857"
           y="120.57143" /></flowRegion><flowPara
         id="flowPara4650" /></flowRoot>  </g>
  <g
     style="display:inline;opacity:1"
     inkscape:label="text"
     id="g4627"
     inkscape:groupmode="layer">
    <g
       aria-label="Natural
Mystic"
       style="font-style:normal;font-weight:normal;font-size:31.75px;line-height:125%;font-family:'Bitstream Vera Sans';letter-spacing:0px;word-spacing:0px;fill:#ffffff;fill-opacity:1;stroke:none;stroke-width:0.26458332px;stroke-linecap:butt;stroke-linejoin:miter;stroke-opacity:1"
       id="text4609">
      <path
         d="m 12.255382,62.139282 v -4.22275 H 8.0326321 v 4.22275 z m 0,-5.04825 v -4.22275 H 8.0326321 v 4.22275 z m 0,-5.08 v -4.22275 H 8.0326321 v 4.22275 z m 0,-5.04825 v -4.22275 H 8.0326321 v 4.22275 z m 0,-5.08 v -4.22275 H 8.0326321 v 4.22275 z m 5.08,0 v -4.22275 h -4.22275 v 4.22275 z m 5.04825,20.2565 v -4.22275 h -4.22275 v 4.22275 z m 0,-5.04825 v -4.22275 h -4.22275 v 4.22275 z m 0,-5.08 v -4.22275 h -4.22275 v 4.22275 z m 0,-5.04825 v -4.22275 h -4.22275 v 4.22275 z m 0,-5.08 v -4.22275 h -4.22275 v 4.22275 z"
         style="font-style:normal;font-variant:normal;font-weight:normal;font-stretch:normal;font-size:31.75px;font-family:'TRS Million';-inkscape-font-specification:'TRS Million';text-align:start;text-anchor:start;fill:#ffffff;fill-opacity:1;stroke-width:0.26458332px"
         id="path4629"
         inkscape:connector-curvature="0" />
      <path
         d="m 29.990734,62.139282 v -4.22275 h -4.22275 v 4.22275 z m 0,-5.04825 v -4.22275 h -4.22275 v 4.22275 z m 0,-5.08 v -4.22275 h -4.22275 v 4.22275 z m 0,-5.04825 v -4.22275 h -4.22275 v 4.22275 z m 0,-5.08 v -4.22275 h -4.22275 v 4.22275 z m 5.08,10.12825 v -4.22275 h -4.22275 v 4.22275 z m 0,-10.12825 v -4.22275 h -4.22275 v 4.22275 z m 5.04825,20.2565 v -4.22275 h -4.22275 v 4.22275 z m 0,-5.04825 v -4.22275 h -4.22275 v 4.22275 z m 0,-5.08 v -4.22275 h -4.22275 v 4.22275 z m 0,-5.04825 v -4.22275 h -4.22275 v 4.22275 z m 0,-5.08 v -4.22275 h -4.22275 v 4.22275 z"
         style="font-style:normal;font-variant:normal;font-weight:normal;font-stretch:normal;font-size:31.75px;font-family:'TRS Million';-inkscape-font-specification:'TRS Million';text-align:start;text-anchor:start;fill:#ffffff;fill-opacity:1;stroke-width:0.26458332px"
         id="path4631"
         inkscape:connector-curvature="0" />
      <path
         d="m 47.726085,41.882782 v -4.22275 h -4.22275 v 4.22275 z m 5.08,20.2565 v -4.22275 h -4.22275 v 4.22275 z m 0,-5.04825 v -4.22275 h -4.22275 v 4.22275 z m 0,-5.08 v -4.22275 h -4.22275 v 4.22275 z m 0,-5.04825 v -4.22275 h -4.22275 v 4.22275 z m 0,-5.08 v -4.22275 h -4.22275 v 4.22275 z m 5.04825,0 v -4.22275 h -4.22275 v 4.22275 z"
         style="font-style:normal;font-variant:normal;font-weight:normal;font-stretch:normal;font-size:31.75px;font-family:'TRS Million';-inkscape-font-specification:'TRS Million';text-align:start;text-anchor:start;fill:#ffffff;fill-opacity:1;stroke-width:0.26458332px"
         id="path4633"
         inkscape:connector-curvature="0" />
      <path
         d="m 65.461437,62.139282 v -4.22275 h -4.22275 v 4.22275 z m 0,-5.04825 v -4.22275 h -4.22275 v 4.22275 z m 0,-5.08 v -4.22275 h -4.22275 v 4.22275 z m 0,-5.04825 v -4.22275 h -4.22275 v 4.22275 z m 0,-5.08 v -4.22275 h -4.22275 v 4.22275 z m 5.08,20.2565 v -4.22275 h -4.22275 v 4.22275 z m 5.04825,0 v -4.22275 h -4.22275 v 4.22275 z m 0,-5.04825 v -4.22275 h -4.22275 v 4.22275 z m 0,-5.08 v -4.22275 h -4.22275 v 4.22275 z m 0,-5.04825 v -4.22275 h -4.22275 v 4.22275 z m 0,-5.08 v -4.22275 h -4.22275 v 4.22275 z"
         style="font-style:normal;font-variant:normal;font-weight:normal;font-stretch:normal;font-size:31.75px;font-family:'TRS Million';-inkscape-font-specification:'TRS Million';text-align:start;text-anchor:start;fill:#ffffff;fill-opacity:1;stroke-width:0.26458332px"
         id="path4635"
         inkscape:connector-curvature="0" />
      <path
         d="m 83.196788,62.139282 v -4.22275 h -4.22275 v 4.22275 z m 0,-5.04825 v -4.22275 h -4.22275 v 4.22275 z m 0,-5.08 v -4.22275 h -4.22275 v 4.22275 z m 0,-5.04825 v -4.22275 h -4.22275 v 4.22275 z m 0,-5.08 v -4.22275 h -4.22275 v 4.22275 z m 5.08,10.12825 v -4.22275 h -4.22275 v 4.22275 z m 0,-10.12825 v -4.22275 h -4.22275 v 4.22275 z m 5.04825,20.2565 v -4.22275 h -4.22275 v 4.22275 z m 0,-5.04825 v -4.22275 h -4.22275 v 4.22275 z m 0,-10.12825 v -4.22275 h -4.22275 v 4.22275 z m 0,-5.08 v -4.22275 h -4.22275 v 4.22275 z"
         style="font-style:normal;font-variant:normal;font-weight:normal;font-stretch:normal;font-size:31.75px;font-family:'TRS Million';-inkscape-font-specification:'TRS Million';text-align:start;text-anchor:start;fill:#ffffff;fill-opacity:1;stroke-width:0.26458332px"
         id="path4637"
         inkscape:connector-curvature="0" />
      <path
         d="m 100.93214,62.139282 v -4.22275 h -4.22275 v 4.22275 z m 0,-5.04825 v -4.22275 h -4.22275 v 4.22275 z m 0,-5.08 v -4.22275 h -4.22275 v 4.22275 z m 0,-5.04825 v -4.22275 h -4.22275 v 4.22275 z m 0,-5.08 v -4.22275 h -4.22275 v 4.22275 z m 5.08,10.12825 v -4.22275 h -4.22275 v 4.22275 z m 0,-10.12825 v -4.22275 h -4.22275 v 4.22275 z m 5.04825,20.2565 v -4.22275 h -4.22275 v 4.22275 z m 0,-5.04825 v -4.22275 h -4.22275 v 4.22275 z m 0,-5.08 v -4.22275 h -4.22275 v 4.22275 z m 0,-5.04825 v -4.22275 h -4.22275 v 4.22275 z m 0,-5.08 v -4.22275 h -4.22275 v 4.22275 z"
         style="font-style:normal;font-variant:normal;font-weight:normal;font-stretch:normal;font-size:31.75px;font-family:'TRS Million';-inkscape-font-specification:'TRS Million';text-align:start;text-anchor:start;fill:#ffffff;fill-opacity:1;stroke-width:0.26458332px"
         id="path4639"
         inkscape:connector-curvature="0" />
      <g
         id="g4756">
        <path
           inkscape:connector-curvature="0"
           id="path4668"
           d="m 118.66749,62.139282 v -4.22275 h -4.22275 v 4.22275 z"
           style="font-style:normal;font-variant:normal;font-weight:normal;font-stretch:normal;font-size:31.75px;font-family:'TRS Million';-inkscape-font-specification:'TRS Million';text-align:start;text-anchor:start;fill:#ffffff;fill-opacity:1;stroke-width:0.26458332px" />
        <path
           inkscape:connector-curvature="0"
           id="path4666"
           d="m 118.66749,57.091032 v -4.22275 h -4.22275 v 4.22275 z"
           style="font-style:normal;font-variant:normal;font-weight:normal;font-stretch:normal;font-size:31.75px;font-family:'TRS Million';-inkscape-font-specification:'TRS Million';text-align:start;text-anchor:start;fill:#ffffff;fill-opacity:1;stroke-width:0.26458332px" />
        <path
           inkscape:connector-curvature="0"
           id="path4664"
           d="m 118.66749,52.011032 v -4.22275 h -4.22275 v 4.22275 z"
           style="font-style:normal;font-variant:normal;font-weight:normal;font-stretch:normal;font-size:31.75px;font-family:'TRS Million';-inkscape-font-specification:'TRS Million';text-align:start;text-anchor:start;fill:#ffffff;fill-opacity:1;stroke-width:0.26458332px" />
        <path
           inkscape:connector-curvature="0"
           id="path4662"
           d="m 118.66749,46.962782 v -4.22275 h -4.22275 v 4.22275 z"
           style="font-style:normal;font-variant:normal;font-weight:normal;font-stretch:normal;font-size:31.75px;font-family:'TRS Million';-inkscape-font-specification:'TRS Million';text-align:start;text-anchor:start;fill:#ffffff;fill-opacity:1;stroke-width:0.26458332px" />
        <path
           inkscape:connector-curvature="0"
           id="path4660"
           d="m 118.66749,41.882782 v -4.22275 h -4.22275 v 4.22275 z"
           style="font-style:normal;font-variant:normal;font-weight:normal;font-stretch:normal;font-size:31.75px;font-family:'TRS Million';-inkscape-font-specification:'TRS Million';text-align:start;text-anchor:start;fill:#ffffff;fill-opacity:1;stroke-width:0.26458332px" />
        <path
           inkscape:connector-curvature="0"
           id="path4658"
           d="m 123.74749,62.139282 v -4.22275 h -4.22275 v 4.22275 z"
           style="font-style:normal;font-variant:normal;font-weight:normal;font-stretch:normal;font-size:31.75px;font-family:'TRS Million';-inkscape-font-specification:'TRS Million';text-align:start;text-anchor:start;fill:#ffffff;fill-opacity:1;stroke-width:0.26458332px" />
      </g>
      <g
         id="g4774">
        <path
           inkscape:connector-curvature="0"
           id="path4747"
           d="M 12.255382,103.54872 V 99.325974 H 8.0326321 v 4.222746 z"
           style="font-style:normal;font-variant:normal;font-weight:normal;font-stretch:normal;font-size:31.75px;font-family:'TRS Million';-inkscape-font-specification:'TRS Million';text-align:start;text-anchor:start;fill:#ffffff;fill-opacity:1;stroke-width:0.26458332px" />
        <path
           inkscape:connector-curvature="0"
           id="path4745"
           d="m 12.255382,98.500474 v -4.22275 H 8.0326321 v 4.22275 z"
           style="font-style:normal;font-variant:normal;font-weight:normal;font-stretch:normal;font-size:31.75px;font-family:'TRS Million';-inkscape-font-specification:'TRS Million';text-align:start;text-anchor:start;fill:#ffffff;fill-opacity:1;stroke-width:0.26458332px" />
        <path
           inkscape:connector-curvature="0"
           id="path4743"
           d="m 12.255382,93.420474 v -4.22275 H 8.0326321 v 4.22275 z"
           style="font-style:normal;font-variant:normal;font-weight:normal;font-stretch:normal;font-size:31.75px;font-family:'TRS Million';-inkscape-font-specification:'TRS Million';text-align:start;text-anchor:start;fill:#ffffff;fill-opacity:1;stroke-width:0.26458332px" />
        <path
           inkscape:connector-curvature="0"
           id="path4741"
           d="m 12.255382,88.372224 v -4.22275 H 8.0326321 v 4.22275 z"
           style="font-style:normal;font-variant:normal;font-weight:normal;font-stretch:normal;font-size:31.75px;font-family:'TRS Million';-inkscape-font-specification:'TRS Million';text-align:start;text-anchor:start;fill:#ffffff;fill-opacity:1;stroke-width:0.26458332px" />
        <path
           inkscape:connector-curvature="0"
           id="path4737"
           d="m 17.335382,83.292224 v -4.22275 h -4.22275 v 4.22275 z"
           style="font-style:normal;font-variant:normal;font-weight:normal;font-stretch:normal;font-size:31.75px;font-family:'TRS Million';-inkscape-font-specification:'TRS Million';text-align:start;text-anchor:start;fill:#ffffff;fill-opacity:1;stroke-width:0.26458332px" />
        <path
           inkscape:connector-curvature="0"
           id="path4735"
           d="m 22.383632,103.54872 v -4.222746 h -4.22275 v 4.222746 z"
           style="font-style:normal;font-variant:normal;font-weight:normal;font-stretch:normal;font-size:31.75px;font-family:'TRS Million';-inkscape-font-specification:'TRS Million';text-align:start;text-anchor:start;fill:#ffffff;fill-opacity:1;stroke-width:0.26458332px" />
        <path
           inkscape:connector-curvature="0"
           id="path4733"
           d="m 22.383632,98.500474 v -4.22275 h -4.22275 v 4.22275 z"
           style="font-style:normal;font-variant:normal;font-weight:normal;font-stretch:normal;font-size:31.75px;font-family:'TRS Million';-inkscape-font-specification:'TRS Million';text-align:start;text-anchor:start;fill:#ffffff;fill-opacity:1;stroke-width:0.26458332px" />
        <path
           inkscape:connector-curvature="0"
           id="path4731"
           d="m 22.383632,93.420474 v -4.22275 h -4.22275 v 4.22275 z"
           style="font-style:normal;font-variant:normal;font-weight:normal;font-stretch:normal;font-size:31.75px;font-family:'TRS Million';-inkscape-font-specification:'TRS Million';text-align:start;text-anchor:start;fill:#ffffff;fill-opacity:1;stroke-width:0.26458332px" />
        <path
           inkscape:connector-curvature="0"
           id="path4729"
           d="m 22.383632,88.372224 v -4.22275 h -4.22275 v 4.22275 z"
           style="font-style:normal;font-variant:normal;font-weight:normal;font-stretch:normal;font-size:31.75px;font-family:'TRS Million';-inkscape-font-specification:'TRS Million';text-align:start;text-anchor:start;fill:#ffffff;fill-opacity:1;stroke-width:0.26458332px" />
        <path
           inkscape:connector-curvature="0"
           id="path4727"
           d="m 22.383632,83.292224 v -4.22275 h -4.22275 v 4.22275 z"
           style="font-style:normal;font-variant:normal;font-weight:normal;font-stretch:normal;font-size:31.75px;font-family:'TRS Million';-inkscape-font-specification:'TRS Million';text-align:start;text-anchor:start;fill:#ffffff;fill-opacity:1;stroke-width:0.26458332px" />
        <path
           inkscape:connector-curvature="0"
           id="path4725"
           d="m 27.431882,83.292224 v -4.22275 h -4.191 v 4.22275 z"
           style="font-style:normal;font-variant:normal;font-weight:normal;font-stretch:normal;font-size:31.75px;font-family:'TRS Million';-inkscape-font-specification:'TRS Million';text-align:start;text-anchor:start;fill:#ffffff;fill-opacity:1;stroke-width:0.26458332px" />
        <path
           inkscape:connector-curvature="0"
           id="path4723"
           d="m 32.511882,103.54872 v -4.222746 h -4.22275 v 4.222746 z"
           style="font-style:normal;font-variant:normal;font-weight:normal;font-stretch:normal;font-size:31.75px;font-family:'TRS Million';-inkscape-font-specification:'TRS Million';text-align:start;text-anchor:start;fill:#ffffff;fill-opacity:1;stroke-width:0.26458332px" />
        <path
           inkscape:connector-curvature="0"
           id="path4721"
           d="m 32.511882,98.500474 v -4.22275 h -4.22275 v 4.22275 z"
           style="font-style:normal;font-variant:normal;font-weight:normal;font-stretch:normal;font-size:31.75px;font-family:'TRS Million';-inkscape-font-specification:'TRS Million';text-align:start;text-anchor:start;fill:#ffffff;fill-opacity:1;stroke-width:0.26458332px" />
        <path
           inkscape:connector-curvature="0"
           id="path4719"
           d="m 32.511882,93.420474 v -4.22275 h -4.22275 v 4.22275 z"
           style="font-style:normal;font-variant:normal;font-weight:normal;font-stretch:normal;font-size:31.75px;font-family:'TRS Million';-inkscape-font-specification:'TRS Million';text-align:start;text-anchor:start;fill:#ffffff;fill-opacity:1;stroke-width:0.26458332px" />
        <path
           inkscape:connector-curvature="0"
           id="path4717"
           d="m 32.511882,88.372224 v -4.22275 h -4.22275 v 4.22275 z"
           style="font-style:normal;font-variant:normal;font-weight:normal;font-stretch:normal;font-size:31.75px;font-family:'TRS Million';-inkscape-font-specification:'TRS Million';text-align:start;text-anchor:start;fill:#ffffff;fill-opacity:1;stroke-width:0.26458332px" />
        <path
           inkscape:connector-curvature="0"
           id="path4643"
           d="m 32.511882,83.292224 v -4.22275 h -4.22275 v 4.22275 z"
           style="font-style:normal;font-variant:normal;font-weight:normal;font-stretch:normal;font-size:31.75px;font-family:'TRS Million';-inkscape-font-specification:'TRS Million';text-align:start;text-anchor:start;fill:#ffffff;fill-opacity:1;stroke-width:0.26458332px" />
      </g>
      <path
         d="m 40.098644,93.420474 v -4.22275 h -4.22275 v 4.22275 z m 0,-5.04825 v -4.22275 h -4.22275 v 4.22275 z m 0,-5.08 v -4.22275 h -4.22275 v 4.22275 z m 5.08,20.256496 v -4.222746 h -4.22275 v 4.222746 z m 0,-5.048246 v -4.22275 h -4.22275 v 4.22275 z m 0,-5.08 v -4.22275 h -4.22275 v 4.22275 z m 5.04825,0 v -4.22275 h -4.22275 v 4.22275 z m 0,-5.04825 v -4.22275 h -4.22275 v 4.22275 z m 0,-5.08 v -4.22275 h -4.22275 v 4.22275 z"
         style="font-style:normal;font-variant:normal;font-weight:normal;font-stretch:normal;font-size:31.75px;font-family:'TRS Million';-inkscape-font-specification:'TRS Million';text-align:start;text-anchor:start;fill:#ffffff;fill-opacity:1;stroke-width:0.26458332px"
         id="path4645"
         inkscape:connector-curvature="0" />
      <path
         d="m 57.833995,103.54872 v -4.222746 h -4.22275 v 4.222746 z m 0,-10.128246 v -4.22275 h -4.22275 v 4.22275 z m 0,-5.04825 v -4.22275 h -4.22275 v 4.22275 z m 0,-5.08 v -4.22275 h -4.22275 v 4.22275 z m 5.08,20.256496 v -4.222746 h -4.22275 v 4.222746 z m 0,-10.128246 v -4.22275 h -4.22275 v 4.22275 z m 0,-10.12825 v -4.22275 h -4.22275 v 4.22275 z m 5.04825,20.256496 v -4.222746 h -4.22275 v 4.222746 z m 0,-5.048246 v -4.22275 h -4.22275 v 4.22275 z m 0,-5.08 v -4.22275 h -4.22275 v 4.22275 z m 0,-10.12825 v -4.22275 h -4.22275 v 4.22275 z"
         style="font-style:normal;font-variant:normal;font-weight:normal;font-stretch:normal;font-size:31.75px;font-family:'TRS Million';-inkscape-font-specification:'TRS Million';text-align:start;text-anchor:start;fill:#ffffff;fill-opacity:1;stroke-width:0.26458332px"
         id="path4647"
         inkscape:connector-curvature="0" />
      <path
         d="m 75.569347,83.292224 v -4.22275 h -4.22275 v 4.22275 z m 5.08,20.256496 v -4.222746 h -4.22275 v 4.222746 z m 0,-5.048246 v -4.22275 h -4.22275 v 4.22275 z m 0,-5.08 v -4.22275 h -4.22275 v 4.22275 z m 0,-5.04825 v -4.22275 h -4.22275 v 4.22275 z m 0,-5.08 v -4.22275 h -4.22275 v 4.22275 z m 5.04825,0 v -4.22275 h -4.22275 v 4.22275 z"
         style="font-style:normal;font-variant:normal;font-weight:normal;font-stretch:normal;font-size:31.75px;font-family:'TRS Million';-inkscape-font-specification:'TRS Million';text-align:start;text-anchor:start;fill:#ffffff;fill-opacity:1;stroke-width:0.26458332px"
         id="path4649"
         inkscape:connector-curvature="0" />
      <path
         d="m 93.304699,103.54872 v -4.222746 h -4.22275 v 4.222746 z m 0,-5.048246 v -4.22275 h -4.22275 v 4.22275 z m 0,-5.08 v -4.22275 h -4.22275 v 4.22275 z m 0,-5.04825 v -4.22275 h -4.22275 v 4.22275 z m 0,-5.08 v -4.22275 h -4.22275 v 4.22275 z"
         style="font-style:normal;font-variant:normal;font-weight:normal;font-stretch:normal;font-size:31.75px;font-family:'TRS Million';-inkscape-font-specification:'TRS Million';text-align:start;text-anchor:start;fill:#ffffff;fill-opacity:1;stroke-width:0.26458332px"
         id="path4651"
         inkscape:connector-curvature="0" />
      <path
         d="m 100.87013,103.54872 v -4.222746 h -4.222752 v 4.222746 z m 0,-5.048246 v -4.22275 h -4.222752 v 4.22275 z m 0,-5.08 v -4.22275 h -4.222752 v 4.22275 z m 0,-5.04825 v -4.22275 h -4.222752 v 4.22275 z m 0,-5.08 v -4.22275 h -4.222752 v 4.22275 z m 5.08,20.256496 v -4.222746 h -4.22275 v 4.222746 z m 0,-20.256496 v -4.22275 h -4.22275 v 4.22275 z m 5.04825,20.256496 v -4.222746 h -4.22275 v 4.222746 z m 0,-20.256496 v -4.22275 h -4.22275 v 4.22275 z"
         style="font-style:normal;font-variant:normal;font-weight:normal;font-stretch:normal;font-size:31.75px;font-family:'TRS Million';-inkscape-font-specification:'TRS Million';text-align:start;text-anchor:start;fill:#ffffff;fill-opacity:1;stroke-width:0.26458332px"
         id="path4653"
         inkscape:connector-curvature="0" />
      <path
         id="path4713"
         style="font-style:normal;font-variant:normal;font-weight:normal;font-stretch:normal;font-size:31.75px;font-family:'TRS Million';-inkscape-font-specification:'TRS Million';text-align:start;text-anchor:start;fill:#ffffff;fill-opacity:1;stroke-width:1.4126029px"
         d="m 128.49487,72.712036 v -4.22275 H 8.1269947 v 4.22275 z M 12.255382,83.292224 V 68.62304 H 8.0326321 V 83.292224 Z M 128.79574,72.681621 V 57.916532 h -4.22275 v 14.765089 z"
         inkscape:connector-curvature="0" />
    </g>
    <flowRoot
       style="font-style:normal;font-weight:normal;font-size:40px;line-height:125%;font-family:'Bitstream Vera Sans';letter-spacing:0px;word-spacing:0px;fill:#000000;fill-opacity:1;stroke:none;stroke-width:1px;stroke-linecap:butt;stroke-linejoin:miter;stroke-opacity:1"
       id="flowRoot4617"
       xml:space="preserve"><flowRegion
         id="flowRegion4613"><rect
           y="112"
           x="-11.428572"
           height="85.714287"
           width="248.57143"
           id="rect4611" /></flowRegion><flowPara
         id="flowPara4615" /></flowRoot>    <flowRoot
       style="font-style:normal;font-weight:normal;font-size:40px;line-height:125%;font-family:'Bitstream Vera Sans';letter-spacing:0px;word-spacing:0px;fill:#000000;fill-opacity:1;stroke:none;stroke-width:1px;stroke-linecap:butt;stroke-linejoin:miter;stroke-opacity:1"
       id="flowRoot4625"
       xml:space="preserve"><flowRegion
         id="flowRegion4621"><rect
           y="120.57143"
           x="51.42857"
           height="84.285713"
           width="187.14285"
           id="rect4619" /></flowRegion><flowPara
         id="flowPara4623" /></flowRoot>  </g>
</svg>
